<?xml version="1.0" encoding="utf-8"?>
<!-- Generator: Adobe Illustrator 17.0.0, SVG Export Plug-In . SVG Version: 6.00 Build 0)  -->
<!DOCTYPE svg PUBLIC "-//W3C//DTD SVG 1.1//EN" "http://www.w3.org/Graphics/SVG/1.1/DTD/svg11.dtd">
<svg version="1.1" id="Layer_1" xmlns="http://www.w3.org/2000/svg" xmlns:xlink="http://www.w3.org/1999/xlink" x="0px" y="0px"
	 width="1508.681px" height="1614.174px" viewBox="0 0 1508.681 1614.174" enable-background="new 0 0 1508.681 1614.174"
	 xml:space="preserve">
<g>
	<path d="M1442.055,1614.174H66.625c-36.737,0-66.625-29.888-66.625-66.626V636.787l2.611-3.683
		c63.168-89.094,140.832-165.626,230.832-227.471c153.646-105.575,333.769-161.378,520.896-161.378
		c187.127,0,367.25,55.804,520.896,161.378c89.999,61.843,167.663,138.376,230.835,227.473l2.61,3.683v910.759
		C1508.681,1584.286,1478.792,1614.174,1442.055,1614.174z M28.346,645.835v901.712c0,21.107,17.172,38.28,38.279,38.28h1375.43
		c21.107,0,38.28-17.173,38.28-38.28v-901.71c-60.762-84.805-135.146-157.743-221.152-216.842
		c-148.901-102.314-323.474-156.395-504.844-156.395c-181.371,0-355.942,54.081-504.843,156.395
		C163.488,488.096,89.104,561.033,28.346,645.835z"/>
</g>
<g>
	<polygon points="758.798,559.091 435.458,691.288 449.379,725.369 758.552,598.966 1056.629,749.712 1073.221,716.874 
		970.317,664.835 970.317,565.913 896.843,565.913 896.843,627.691 761.123,559.091 	"/>
</g>
<g>
	<path d="M928.342,834.482c37.09-23.284,31.917-64.871,31.917-64.871c-4.144-64.894-85.039-65.515-85.039-65.515H506.564v46.89
		l117.232,0.138v74.909h-82.522v46.406h82.522v127.109h141.966c88.178-1.604,86.259-84.931,86.259-84.931
		c1.405-59.292-48.409-80.135-48.409-80.135c48.571-32.355,28.103-83.496,28.103-83.496h43.505
		c20.575,14.267,18.925,42.124,18.925,42.124c-7.229,52.876-67.273,54.395-67.273,54.395
		c108.721,24.228,107.693,152.043,107.693,152.043h67.549C993.881,858.602,928.342,834.482,928.342,834.482 M765.763,952.628H700.14
		v-201.45h51.74c19.27,18.434,17.896,38.985,17.896,38.985c-2.064,54.088-68.416,57.365-68.416,57.365
		C832.744,890.466,765.763,952.628,765.763,952.628z"/>
</g>
<g>
	<polygon points="535.041,1105.012 535.041,1130.287 468.989,1130.287 468.989,1161.867 526.23,1161.867 526.23,1185.218 
		468.989,1185.218 468.989,1241.703 438.929,1241.703 438.929,1105.012 	"/>
</g>
<g>
	<rect x="538.102" y="1105.012" width="30.052" height="136.69"/>
</g>
<g>
	<path d="M644.547,1105.018c6.509,0,12.447,0.563,17.798,1.713c5.36,1.141,9.96,3.023,13.781,5.645
		c3.84,2.622,6.794,6.1,8.908,10.438c2.105,4.338,3.158,9.698,3.158,16.083c0,6.891-1.558,12.632-4.688,17.232
		c-3.127,4.592-7.758,8.355-13.878,11.297c8.421,2.426,14.707,6.667,18.859,12.72c4.142,6.062,6.219,13.372,6.219,21.921
		c0,6.891-1.334,12.864-4.017,17.903c-2.688,5.051-6.297,9.162-10.817,12.35c-4.534,3.197-9.709,5.545-15.519,7.076
		c-5.807,1.539-11.773,2.301-17.895,2.301h-66.237v-136.679H644.547z M640.706,1160.339c5.371,0,9.775-1.276,13.218-3.829
		c3.44-2.553,5.164-6.706,5.164-12.447c0-3.188-0.575-5.81-1.724-7.846c-1.141-2.036-2.672-3.636-4.581-4.797
		c-1.92-1.138-4.122-1.939-6.609-2.387c-2.495-0.448-5.078-0.663-7.758-0.663h-28.14v31.969H640.706z M642.431,1218.343
		c2.945,0,5.752-0.282,8.432-0.868c2.68-0.566,5.04-1.531,7.087-2.857c2.036-1.343,3.664-3.166,4.882-5.468
		c1.207-2.291,1.812-5.225,1.812-8.8c0-7.018-1.978-12.03-5.935-15.041c-3.956-2.992-9.181-4.492-15.693-4.492h-32.74v37.525
		H642.431z"/>
</g>
<g>
	<path d="M768.796,1105.015l51.11,136.679h-31.198l-10.341-30.427h-51.122l-10.723,30.427h-30.254l51.696-136.679H768.796z
		 M770.512,1188.857l-17.224-50.146h-0.389l-17.799,50.146H770.512z"/>
</g>
<g>
	<path d="M891.122,1105.01c6.12,0,11.648,0.995,16.561,2.973c4.912,1.978,9.123,4.678,12.632,8.128
		c3.517,3.44,6.189,7.446,8.051,11.958c1.84,4.542,2.768,9.416,2.768,14.652c0,8.04-1.688,15.011-5.078,20.868
		c-3.373,5.865-8.899,10.341-16.552,13.4v0.392c3.694,1.022,6.766,2.58,9.184,4.677c2.437,2.114,4.415,4.6,5.946,7.476
		c1.528,2.873,2.641,6.023,3.351,9.463c0.693,3.451,1.169,6.91,1.423,10.352c0.138,2.172,0.254,4.727,0.389,7.659
		c0.127,2.934,0.351,5.926,0.674,8.987c0.312,3.062,0.818,5.965,1.531,8.723c0.702,2.741,1.743,5.07,3.158,6.979h-30.06
		c-1.658-4.338-2.691-9.501-3.069-15.497c-0.381-6.012-0.948-11.745-1.716-17.24c-1.025-7.136-3.197-12.381-6.512-15.693
		c-3.313-3.315-8.734-4.982-16.268-4.982h-30.057v53.412h-30.06V1105.01H891.122z M880.399,1166.843
		c6.893,0,12.068-1.531,15.519-4.592c3.44-3.058,5.164-8.04,5.164-14.93c0-6.639-1.724-11.463-5.164-14.455
		c-3.451-3-8.626-4.493-15.519-4.493h-32.922v38.47H880.399z"/>
</g>
<g>
	<path d="M939.939,1145.508c3.061-8.753,7.468-16.375,13.207-22.887c5.752-6.51,12.798-11.607,21.152-15.32
		c8.352-3.694,17.776-5.548,28.245-5.548c10.585,0,20.031,1.854,28.333,5.548c8.297,3.713,15.323,8.811,21.053,15.32
		c5.752,6.512,10.148,14.135,13.209,22.887c3.069,8.734,4.608,18.216,4.608,28.422c0,9.952-1.539,19.241-4.608,27.855
		c-3.061,8.617-7.457,16.11-13.209,22.487c-5.73,6.393-12.756,11.394-21.053,15.027c-8.302,3.636-17.749,5.471-28.333,5.471
		c-10.468,0-19.892-1.835-28.245-5.471c-8.355-3.633-15.4-8.634-21.152-15.027c-5.738-6.377-10.145-13.87-13.207-22.487
		c-3.069-8.614-4.589-17.903-4.589-27.855C935.35,1163.723,936.87,1154.241,939.939,1145.508 M967.407,1190.683
		c1.354,5.429,3.478,10.302,6.412,14.64c2.934,4.338,6.775,7.824,11.502,10.427c4.716,2.622,10.446,3.929,17.221,3.929
		c6.764,0,12.516-1.307,17.232-3.929c4.719-2.602,8.549-6.089,11.483-10.427c2.934-4.338,5.078-9.212,6.412-14.64
		c1.346-5.421,2.02-11.013,2.02-16.754c0-6.004-0.674-11.803-2.02-17.417c-1.334-5.625-3.478-10.626-6.412-15.041
		c-2.934-4.396-6.764-7.905-11.483-10.526c-4.716-2.611-10.468-3.918-17.232-3.918c-6.775,0-12.504,1.307-17.221,3.918
		c-4.727,2.622-8.568,6.131-11.502,10.526c-2.934,4.415-5.059,9.416-6.412,15.041c-1.337,5.614-2,11.414-2,17.417
		C965.407,1179.671,966.07,1185.262,967.407,1190.683z"/>
</g>
<g>
	<rect x="435.458" y="1048.011" width="637.763" height="24.351"/>
</g>
<g>
	<path d="M980.872,1273.638h13.31l32.876,83.322l32.743-83.322h13.31v95.035h-9.05v-82.124h-0.266l-32.477,82.124h-8.519
		l-32.609-82.124h-0.267v82.124h-9.051V1273.638z M874.457,1273.638h65.62v7.72h-56.568v34.34h52.974v7.72h-52.974v37.535h57.233
		v7.72h-66.285V1273.638z M762.585,1273.638h75.203v7.72h-33.142v87.315h-9.051v-87.315h-33.009V1273.638z M665.354,1337.394
		c-0.089,4.88,0.665,8.962,2.262,12.245c1.597,3.284,3.794,5.901,6.589,7.853c2.796,1.952,6.101,3.35,9.917,4.193
		c3.815,0.843,7.897,1.265,12.245,1.265c2.484,0,5.191-0.355,8.119-1.065c2.928-0.71,5.657-1.841,8.185-3.394
		c2.529-1.553,4.637-3.549,6.322-5.99c1.686-2.44,2.53-5.391,2.53-8.851c0-2.662-0.599-4.969-1.797-6.922
		c-1.198-1.952-2.751-3.594-4.659-4.924c-1.908-1.331-4.015-2.418-6.323-3.261c-2.307-0.843-4.569-1.53-6.788-2.063l-21.163-5.191
		c-2.751-0.71-5.435-1.597-8.053-2.662c-2.618-1.065-4.902-2.484-6.855-4.259c-1.952-1.775-3.527-3.948-4.725-6.522
		c-1.198-2.574-1.797-5.724-1.797-9.451c0-2.307,0.444-5.013,1.331-8.119c0.888-3.106,2.551-6.034,4.991-8.785
		c2.441-2.751,5.79-5.08,10.049-6.988c4.259-1.908,9.717-2.861,16.372-2.861c4.703,0,9.184,0.621,13.443,1.863
		c4.259,1.243,7.986,3.106,11.181,5.591c3.194,2.485,5.746,5.568,7.653,9.251c1.908,3.682,2.862,7.964,2.862,12.844h-9.051
		c-0.178-3.639-0.998-6.811-2.462-9.517c-1.464-2.707-3.372-4.969-5.724-6.788c-2.351-1.819-5.058-3.194-8.119-4.126
		c-3.061-0.931-6.278-1.397-9.649-1.397c-3.106,0-6.101,0.332-8.984,0.998c-2.884,0.666-5.413,1.731-7.587,3.195
		c-2.174,1.464-3.927,3.394-5.257,5.79c-1.331,2.396-1.997,5.368-1.997,8.917c0,2.218,0.377,4.149,1.132,5.79
		c0.754,1.642,1.797,3.04,3.128,4.193c1.331,1.153,2.862,2.085,4.592,2.795c1.73,0.71,3.572,1.286,5.523,1.73l23.16,5.724
		c3.372,0.887,6.544,1.974,9.517,3.26c2.972,1.287,5.59,2.885,7.852,4.792c2.263,1.908,4.037,4.237,5.324,6.988
		c1.286,2.751,1.93,6.079,1.93,9.983c0,1.065-0.111,2.484-0.333,4.26c-0.222,1.774-0.754,3.66-1.597,5.656
		c-0.843,1.996-2.041,4.015-3.594,6.056c-1.553,2.041-3.682,3.882-6.389,5.523c-2.707,1.642-6.056,2.973-10.049,3.994
		c-3.993,1.021-8.785,1.53-14.375,1.53c-5.59,0-10.781-0.643-15.572-1.93c-4.792-1.287-8.874-3.261-12.245-5.923
		c-3.372-2.662-5.968-6.078-7.787-10.249c-1.819-4.171-2.595-9.184-2.329-15.041H665.354z M578.505,1329.541l-37.268-55.903h10.648
		l31.279,48.183l31.146-48.183h10.781l-37.534,55.903v39.132h-9.051V1329.541z M444.671,1337.394
		c-0.089,4.88,0.665,8.962,2.262,12.245c1.598,3.284,3.794,5.901,6.589,7.853c2.796,1.952,6.1,3.35,9.916,4.193
		c3.815,0.843,7.897,1.265,12.246,1.265c2.484,0,5.191-0.355,8.119-1.065c2.928-0.71,5.657-1.841,8.186-3.394
		c2.529-1.553,4.636-3.549,6.322-5.99c1.686-2.44,2.529-5.391,2.529-8.851c0-2.662-0.599-4.969-1.797-6.922
		c-1.198-1.952-2.751-3.594-4.658-4.924c-1.908-1.331-4.016-2.418-6.323-3.261c-2.307-0.843-4.569-1.53-6.788-2.063l-21.163-5.191
		c-2.751-0.71-5.435-1.597-8.053-2.662s-4.902-2.484-6.855-4.259c-1.952-1.775-3.527-3.948-4.725-6.522
		c-1.197-2.574-1.796-5.724-1.796-9.451c0-2.307,0.444-5.013,1.331-8.119c0.888-3.106,2.552-6.034,4.992-8.785
		c2.44-2.751,5.79-5.08,10.049-6.988c4.26-1.908,9.717-2.861,16.372-2.861c4.703,0,9.184,0.621,13.443,1.863
		c4.259,1.243,7.986,3.106,11.181,5.591c3.194,2.485,5.746,5.568,7.653,9.251c1.908,3.682,2.862,7.964,2.862,12.844h-9.051
		c-0.178-3.639-0.998-6.811-2.462-9.517c-1.464-2.707-3.372-4.969-5.724-6.788c-2.351-1.819-5.057-3.194-8.119-4.126
		c-3.061-0.931-6.278-1.397-9.65-1.397c-3.106,0-6.1,0.332-8.984,0.998c-2.885,0.666-5.413,1.731-7.587,3.195
		c-2.174,1.464-3.926,3.394-5.257,5.79c-1.331,2.396-1.997,5.368-1.997,8.917c0,2.218,0.378,4.149,1.132,5.79
		c0.754,1.642,1.796,3.04,3.128,4.193c1.331,1.153,2.862,2.085,4.592,2.795c1.73,0.71,3.572,1.286,5.524,1.73l23.16,5.724
		c3.372,0.887,6.544,1.974,9.517,3.26c2.972,1.287,5.59,2.885,7.852,4.792c2.263,1.908,4.037,4.237,5.324,6.988
		c1.286,2.751,1.93,6.079,1.93,9.983c0,1.065-0.111,2.484-0.333,4.26c-0.222,1.774-0.754,3.66-1.597,5.656
		c-0.843,1.996-2.041,4.015-3.594,6.056c-1.553,2.041-3.682,3.882-6.389,5.523c-2.707,1.642-6.056,2.973-10.049,3.994
		c-3.994,1.021-8.785,1.53-14.376,1.53c-5.59,0-10.781-0.643-15.572-1.93c-4.792-1.287-8.873-3.261-12.245-5.923
		c-3.372-2.662-5.968-6.078-7.787-10.249c-1.819-4.171-2.595-9.184-2.329-15.041H444.671z"/>
</g>
<g>
	<path d="M782.684,258.702l-56.69-0.549c0.384-39.675,8.525-81.752,24.196-125.065C765.514,90.735,788.497,45.958,818.499,0
		l47.473,30.991C811.36,114.646,783.337,191.259,782.684,258.702z"/>
</g>
</svg>
