<?xml version="1.0" encoding="utf-8"?>
<!-- Generator: Adobe Illustrator 17.0.0, SVG Export Plug-In . SVG Version: 6.00 Build 0)  -->
<!DOCTYPE svg PUBLIC "-//W3C//DTD SVG 1.1//EN" "http://www.w3.org/Graphics/SVG/1.1/DTD/svg11.dtd">
<svg version="1.1" id="Layer_1" xmlns="http://www.w3.org/2000/svg" xmlns:xlink="http://www.w3.org/1999/xlink" x="0px" y="0px"
	 width="1409.976px" height="1409.976px" viewBox="0 0 1409.976 1409.976" enable-background="new 0 0 1409.976 1409.976"
	 xml:space="preserve">
<g>
	<path d="M704.988,837.597c-73.121,0-132.608-59.488-132.608-132.609c0-73.12,59.487-132.608,132.608-132.608
		s132.609,59.488,132.609,132.608C837.597,778.109,778.108,837.597,704.988,837.597z M704.988,586.553
		c-65.305,0-118.435,53.13-118.435,118.435c0,65.306,53.13,118.436,118.435,118.436s118.435-53.13,118.435-118.436
		C823.423,639.683,770.293,586.553,704.988,586.553z"/>
</g>
<path d="M704.988,272.917c119.314,0,227.332,48.361,305.521,126.55c53.538,53.538,93.086,121.062,112.705,196.62h-14.662
	c-19.283-71.636-57.128-135.663-108.064-186.599c-75.624-75.624-180.099-122.398-295.5-122.398s-219.876,46.774-295.5,122.398
	S287.09,589.587,287.09,704.988s46.774,219.876,122.398,295.5c75.624,75.624,180.099,122.398,295.5,122.398
	c115.402,0,219.877-46.774,295.5-122.398c50.936-50.936,88.781-114.963,108.064-186.599h14.662
	c-19.619,75.558-59.167,143.083-112.705,196.62c-78.189,78.189-186.207,126.55-305.521,126.55
	c-119.314,0-227.332-48.361-305.521-126.55c-78.189-78.189-126.55-186.208-126.55-305.521c0-119.313,48.361-227.332,126.55-305.521
	C477.656,321.278,585.674,272.917,704.988,272.917"/>
<g>
	<g>
		<path d="M704.988,1409.976c-95.168,0-187.496-18.641-274.419-55.406c-83.951-35.508-159.344-86.338-224.084-151.078
			c-64.74-64.74-115.57-140.133-151.078-224.084C18.642,892.484,0,800.156,0,704.988c0-95.167,18.642-187.496,55.407-274.419
			c35.508-83.951,86.338-159.344,151.078-224.084c64.74-64.74,140.133-115.57,224.084-151.078C517.492,18.642,609.82,0,704.988,0
			c95.167,0,187.496,18.642,274.419,55.407c83.951,35.508,159.344,86.338,224.084,151.078
			c64.74,64.74,115.57,140.133,151.078,224.084c36.766,86.923,55.406,179.251,55.406,274.419c0,95.168-18.641,187.496-55.406,274.42
			c-35.508,83.951-86.338,159.344-151.078,224.084s-140.133,115.57-224.084,151.078
			C892.483,1391.335,800.155,1409.976,704.988,1409.976z M704.988,28.347c-373.101,0-676.641,303.54-676.641,676.641
			c0,373.102,303.54,676.643,676.641,676.643s676.642-303.541,676.642-676.643C1381.63,331.887,1078.089,28.347,704.988,28.347z"/>
	</g>
</g>
<g>
	<path d="M999.964,681.636c0,1.682,0.304,3.107,0.911,4.275c0.607,1.168,1.413,2.114,2.418,2.838
		c1.004,0.725,2.184,1.262,3.539,1.612c1.354,0.35,2.757,0.525,4.205,0.525c0.98,0,2.032-0.082,3.153-0.245s2.173-0.479,3.154-0.946
		c0.98-0.467,1.799-1.109,2.452-1.927c0.654-0.817,0.981-1.857,0.981-3.119c0-1.355-0.432-2.453-1.297-3.294
		c-0.864-0.841-1.997-1.542-3.398-2.103s-2.99-1.051-4.766-1.472s-3.574-0.888-5.396-1.402c-1.869-0.467-3.691-1.04-5.467-1.717
		c-1.775-0.678-3.364-1.554-4.766-2.628c-1.401-1.074-2.534-2.418-3.399-4.03c-0.864-1.612-1.296-3.563-1.296-5.852
		c0-2.569,0.549-4.801,1.646-6.693c1.099-1.892,2.535-3.469,4.311-4.73c1.775-1.262,3.784-2.196,6.027-2.803
		c2.242-0.607,4.485-0.911,6.728-0.911c2.616,0,5.128,0.292,7.534,0.876s4.544,1.53,6.413,2.838c1.868,1.308,3.352,2.979,4.45,5.011
		c1.098,2.033,1.646,4.497,1.646,7.394h-10.652c-0.094-1.495-0.409-2.733-0.946-3.714c-0.537-0.981-1.25-1.752-2.138-2.313
		s-1.904-0.958-3.049-1.191c-1.145-0.233-2.395-0.35-3.749-0.351c-0.888,0-1.775,0.093-2.663,0.281
		c-0.888,0.186-1.694,0.513-2.418,0.981c-0.725,0.467-1.32,1.051-1.787,1.752c-0.468,0.701-0.701,1.589-0.701,2.663
		c0,0.981,0.187,1.776,0.561,2.383c0.374,0.607,1.11,1.168,2.208,1.682c1.098,0.514,2.616,1.028,4.556,1.542
		c1.938,0.514,4.474,1.168,7.604,1.962c0.935,0.187,2.231,0.525,3.89,1.016c1.659,0.491,3.306,1.273,4.941,2.348
		c1.635,1.075,3.048,2.512,4.24,4.311c1.191,1.798,1.787,4.1,1.787,6.903c0,2.29-0.444,4.416-1.332,6.378s-2.208,3.656-3.96,5.081
		c-1.752,1.425-3.925,2.535-6.518,3.329c-2.593,0.794-5.595,1.192-9.006,1.192c-2.757,0-5.432-0.339-8.024-1.017
		c-2.593-0.677-4.883-1.74-6.868-3.188c-1.985-1.449-3.563-3.294-4.73-5.537s-1.729-4.906-1.683-7.99H999.964z"/>
	<path d="M1037.947,648.207h15.488l11.704,34.411h0.14l11.073-34.411h15.489v50.04h-10.303v-35.462h-0.14l-12.265,35.462h-8.48
		l-12.265-35.112h-0.141v35.112h-10.302V648.207z"/>
	<path d="M1099.339,673.437c0-3.738,0.561-7.207,1.682-10.407c1.122-3.201,2.733-5.992,4.836-8.375s4.685-4.252,7.744-5.607
		c3.061-1.354,6.507-2.032,10.338-2.032c3.878,0,7.335,0.677,10.372,2.032s5.606,3.224,7.709,5.607
		c2.103,2.382,3.715,5.174,4.836,8.375c1.121,3.2,1.683,6.669,1.683,10.407c0,3.645-0.562,7.043-1.683,10.197
		s-2.733,5.898-4.836,8.235c-2.103,2.336-4.672,4.17-7.709,5.501s-6.494,1.998-10.372,1.998c-3.831,0-7.277-0.666-10.338-1.998
		c-3.06-1.332-5.642-3.166-7.744-5.501c-2.103-2.336-3.714-5.081-4.836-8.235C1099.899,680.48,1099.339,677.081,1099.339,673.437z
		 M1110.342,673.437c0,2.103,0.245,4.146,0.736,6.132c0.49,1.986,1.273,3.773,2.348,5.361s2.477,2.862,4.205,3.819
		c1.729,0.958,3.831,1.437,6.308,1.437s4.579-0.479,6.308-1.437c1.729-0.958,3.13-2.231,4.205-3.819
		c1.074-1.588,1.856-3.375,2.348-5.361c0.49-1.986,0.735-4.03,0.735-6.132c0-2.196-0.245-4.322-0.735-6.377
		c-0.491-2.056-1.273-3.89-2.348-5.502c-1.075-1.612-2.477-2.896-4.205-3.854c-1.729-0.958-3.831-1.437-6.308-1.437
		c-2.477,0-4.579,0.479-6.308,1.437s-3.131,2.243-4.205,3.854c-1.074,1.612-1.857,3.446-2.348,5.502
		C1110.587,669.115,1110.342,671.241,1110.342,673.437z"/>
	<path d="M1156.035,648.207h11.003v20.745l19.554-20.745h13.736l-19.554,19.764l21.445,30.276h-13.806l-15.068-22.497l-6.308,6.378
		v16.119h-11.003V648.207z"/>
	<path d="M1206.633,648.207h37.425v9.251h-26.422v10.723h24.249v8.55h-24.249v12.265h26.982v9.251h-37.985V648.207z"/>
</g>
<g>
	<path d="M992.913,739.277c-0.044,2.405,0.328,4.416,1.115,6.034c0.787,1.617,1.869,2.907,3.246,3.869s3.006,1.65,4.886,2.065
		c1.88,0.416,3.892,0.623,6.034,0.623c1.224,0,2.558-0.175,4-0.524c1.443-0.35,2.787-0.907,4.033-1.672
		c1.246-0.766,2.285-1.749,3.115-2.951c0.831-1.203,1.246-2.656,1.246-4.361c0-1.312-0.295-2.449-0.885-3.411
		c-0.591-0.961-1.355-1.771-2.296-2.426c-0.939-0.656-1.979-1.191-3.115-1.607c-1.137-0.415-2.252-0.754-3.345-1.017l-10.428-2.558
		c-1.355-0.35-2.678-0.787-3.968-1.312c-1.289-0.524-2.415-1.224-3.377-2.099c-0.962-0.874-1.738-1.945-2.328-3.213
		c-0.591-1.269-0.886-2.82-0.886-4.656c0-1.137,0.219-2.471,0.656-4.001c0.437-1.53,1.257-2.973,2.459-4.328
		s2.853-2.503,4.951-3.443c2.099-0.939,4.788-1.41,8.067-1.41c2.317,0,4.524,0.306,6.623,0.918s3.936,1.53,5.51,2.755
		c1.573,1.224,2.83,2.743,3.771,4.558c0.939,1.814,1.41,3.924,1.41,6.329h-4.46c-0.087-1.793-0.491-3.355-1.213-4.689
		c-0.722-1.333-1.661-2.448-2.82-3.345c-1.158-0.896-2.492-1.574-4-2.033c-1.509-0.459-3.094-0.688-4.755-0.688
		c-1.53,0-3.006,0.164-4.427,0.492s-2.667,0.853-3.738,1.574c-1.071,0.721-1.935,1.672-2.591,2.853
		c-0.655,1.181-0.983,2.645-0.983,4.394c0,1.094,0.186,2.044,0.558,2.854c0.371,0.809,0.885,1.497,1.541,2.065
		c0.655,0.568,1.41,1.027,2.263,1.377s1.76,0.634,2.722,0.853l11.411,2.82c1.661,0.438,3.225,0.973,4.689,1.606
		c1.464,0.635,2.754,1.421,3.869,2.361c1.114,0.94,1.989,2.088,2.623,3.443s0.951,2.995,0.951,4.918
		c0.001,0.525-0.054,1.225-0.164,2.099c-0.109,0.875-0.372,1.804-0.787,2.788c-0.415,0.983-1.006,1.978-1.771,2.983
		c-0.766,1.006-1.814,1.913-3.148,2.722c-1.333,0.809-2.983,1.465-4.951,1.968s-4.328,0.754-7.083,0.754
		c-2.754,0-5.313-0.316-7.673-0.951c-2.361-0.634-4.372-1.606-6.034-2.918c-1.661-1.312-2.939-2.995-3.836-5.05
		s-1.279-4.525-1.147-7.411H992.913z"/>
	<path d="M1032.131,707.863h32.332v3.805h-27.872v16.92h26.102v3.804h-26.102v18.494h28.2v3.804h-32.66V707.863z"/>
	<path d="M1070.954,707.863h4.984l27.282,39.612h0.131v-39.612h4.46v46.826h-4.984l-27.282-39.611h-0.131v39.611h-4.46V707.863z"/>
	<path d="M1119.288,739.277c-0.044,2.405,0.328,4.416,1.115,6.034c0.787,1.617,1.869,2.907,3.246,3.869s3.006,1.65,4.886,2.065
		c1.88,0.416,3.892,0.623,6.034,0.623c1.224,0,2.558-0.175,4-0.524c1.443-0.35,2.787-0.907,4.033-1.672
		c1.246-0.766,2.285-1.749,3.115-2.951c0.831-1.203,1.246-2.656,1.246-4.361c0-1.312-0.295-2.449-0.885-3.411
		c-0.591-0.961-1.355-1.771-2.296-2.426c-0.939-0.656-1.979-1.191-3.115-1.607c-1.137-0.415-2.252-0.754-3.345-1.017l-10.428-2.558
		c-1.355-0.35-2.678-0.787-3.968-1.312c-1.289-0.524-2.415-1.224-3.377-2.099c-0.962-0.874-1.738-1.945-2.328-3.213
		c-0.591-1.269-0.886-2.82-0.886-4.656c0-1.137,0.219-2.471,0.656-4.001c0.437-1.53,1.257-2.973,2.459-4.328
		s2.853-2.503,4.951-3.443c2.099-0.939,4.788-1.41,8.067-1.41c2.317,0,4.524,0.306,6.623,0.918s3.936,1.53,5.51,2.755
		c1.573,1.224,2.83,2.743,3.771,4.558c0.939,1.814,1.41,3.924,1.41,6.329h-4.46c-0.087-1.793-0.491-3.355-1.213-4.689
		c-0.722-1.333-1.661-2.448-2.82-3.345c-1.158-0.896-2.492-1.574-4-2.033c-1.509-0.459-3.094-0.688-4.755-0.688
		c-1.53,0-3.006,0.164-4.427,0.492s-2.667,0.853-3.738,1.574c-1.071,0.721-1.935,1.672-2.591,2.853
		c-0.655,1.181-0.983,2.645-0.983,4.394c0,1.094,0.186,2.044,0.558,2.854c0.371,0.809,0.885,1.497,1.541,2.065
		c0.655,0.568,1.41,1.027,2.263,1.377s1.76,0.634,2.722,0.853l11.411,2.82c1.661,0.438,3.225,0.973,4.689,1.606
		c1.464,0.635,2.754,1.421,3.869,2.361c1.114,0.94,1.989,2.088,2.623,3.443s0.951,2.995,0.951,4.918
		c0.001,0.525-0.054,1.225-0.164,2.099c-0.109,0.875-0.372,1.804-0.787,2.788c-0.415,0.983-1.006,1.978-1.771,2.983
		c-0.766,1.006-1.814,1.913-3.148,2.722c-1.333,0.809-2.983,1.465-4.951,1.968s-4.328,0.754-7.083,0.754
		c-2.754,0-5.313-0.316-7.673-0.951c-2.361-0.634-4.372-1.606-6.034-2.918c-1.661-1.312-2.939-2.995-3.836-5.05
		s-1.279-4.525-1.147-7.411H1119.288z"/>
	<path d="M1156.013,731.276c0-3.235,0.459-6.317,1.378-9.247c0.918-2.929,2.295-5.52,4.131-7.771
		c1.837-2.251,4.143-4.044,6.919-5.378c2.776-1.333,6.001-2,9.674-2s6.886,0.667,9.641,2c2.755,1.334,5.05,3.126,6.886,5.378
		c1.837,2.252,3.214,4.843,4.132,7.771c0.918,2.93,1.377,6.012,1.377,9.247s-0.459,6.318-1.377,9.247
		c-0.918,2.93-2.295,5.509-4.132,7.739c-1.836,2.229-4.131,4.011-6.886,5.345c-2.755,1.333-5.968,2-9.641,2s-6.897-0.667-9.674-2
		c-2.776-1.334-5.082-3.115-6.919-5.345c-1.836-2.23-3.213-4.81-4.131-7.739C1156.472,737.594,1156.013,734.511,1156.013,731.276z
		 M1160.473,731.276c0,2.536,0.339,5.039,1.017,7.51c0.678,2.47,1.727,4.678,3.147,6.623c1.421,1.946,3.247,3.509,5.477,4.689
		s4.896,1.771,8.001,1.771s5.761-0.59,7.968-1.771c2.208-1.181,4.022-2.743,5.443-4.689c1.421-1.945,2.471-4.153,3.148-6.623
		c0.678-2.471,1.017-4.974,1.017-7.51c0-2.579-0.339-5.094-1.017-7.542s-1.728-4.646-3.148-6.591s-3.235-3.509-5.443-4.689
		c-2.207-1.18-4.863-1.771-7.968-1.771s-5.771,0.591-8.001,1.771c-2.229,1.181-4.056,2.744-5.477,4.689s-2.47,4.143-3.147,6.591
		S1160.473,728.697,1160.473,731.276z"/>
	<path d="M1207.102,707.863h21.445c1.924,0,3.749,0.241,5.477,0.722c1.727,0.481,3.235,1.214,4.525,2.197
		c1.289,0.983,2.317,2.251,3.082,3.804c0.766,1.552,1.147,3.377,1.147,5.477c0,2.973-0.765,5.552-2.295,7.738
		c-1.53,2.186-3.804,3.585-6.82,4.197v0.131c1.529,0.219,2.798,0.623,3.804,1.214c1.005,0.59,1.825,1.344,2.459,2.263
		c0.634,0.918,1.093,1.978,1.377,3.181c0.284,1.202,0.47,2.503,0.558,3.901c0.044,0.787,0.088,1.749,0.131,2.886
		c0.044,1.137,0.132,2.285,0.263,3.443s0.339,2.252,0.623,3.279s0.666,1.825,1.147,2.394h-4.919
		c-0.262-0.438-0.47-0.973-0.622-1.606c-0.153-0.634-0.263-1.29-0.328-1.968c-0.064-0.678-0.119-1.345-0.164-2
		c-0.043-0.656-0.087-1.225-0.131-1.705c-0.088-1.662-0.23-3.313-0.427-4.952s-0.612-3.104-1.246-4.394s-1.552-2.328-2.755-3.115
		c-1.202-0.787-2.853-1.137-4.951-1.05h-16.92v20.79h-4.46V707.863z M1211.562,730.095h16.658c1.354,0,2.645-0.207,3.869-0.623
		c1.224-0.415,2.295-1.016,3.213-1.803c0.919-0.787,1.65-1.738,2.197-2.854c0.546-1.114,0.819-2.394,0.82-3.836
		c0-2.886-0.831-5.159-2.492-6.821c-1.662-1.661-4.197-2.491-7.607-2.491h-16.658V730.095z"/>
</g>
<path fill-rule="evenodd" clip-rule="evenodd" fill="#0078CC" d="M742.45,704.988c0-20.69-16.773-37.462-37.463-37.462
	c-20.69,0-37.462,16.773-37.462,37.462c0,20.69,16.773,37.463,37.462,37.463C725.678,742.451,742.45,725.678,742.45,704.988"/>
</svg>
