<?xml version="1.0" encoding="utf-8"?>
<!-- Generator: Adobe Illustrator 20.0.0, SVG Export Plug-In . SVG Version: 6.00 Build 0)  -->
<svg version="1.1" id="Layer_1" xmlns="http://www.w3.org/2000/svg" xmlns:xlink="http://www.w3.org/1999/xlink" x="0px" y="0px"
	 viewBox="0 0 1079.7 1003.1" style="enable-background:new 0 0 1079.7 1003.1;" xml:space="preserve">
<style type="text/css">
.fillpulse {
	animation: fillpulse 3s infinite;
}

@keyframes fillpulse {
	0%, 20%, 40%, 60%, 100% {
		fill: rgba(255,255,255,0);
	}
	10%, 30%, 50% {
		fill: #0078CC;
	}
}
</style>
<g>
	<path d="M336.1,494.8c54.2,39.7,126.2,61.5,202.8,61.5s148.6-21.9,202.8-61.5c54.5-39.9,84.6-93.1,84.6-149.8
		c0-56.7-30-109.8-84.6-149.8c-54.2-39.7-126.2-61.5-202.8-61.5s-148.6,21.9-202.8,61.5c-54.5,39.9-84.6,93.1-84.6,149.8
		C251.5,401.7,281.5,454.9,336.1,494.8z M538.8,140.9c154.5,0,280.3,91.6,280.3,204.2c0,112.6-125.7,204.2-280.3,204.2
		c-154.5,0-280.3-91.6-280.3-204.2C258.6,232.5,384.3,140.9,538.8,140.9z"/>
	<path d="M538.8,415.4c52.2,0,94.7-31.5,94.7-70.3c0-38.8-42.5-70.3-94.7-70.3c-52.2,0-94.7,31.5-94.7,70.3
		C444.1,383.8,486.6,415.4,538.8,415.4z M538.8,281.9c48.3,0,87.6,28.4,87.6,63.2c0,34.9-39.3,63.2-87.6,63.2s-87.6-28.4-87.6-63.2
		C451.2,310.2,490.5,281.9,538.8,281.9z"/>
	<path d="M1077.3,516.5c-0.2-29.3-0.4-59.6-0.1-89.6c0.3-5.8,0.5-11.5,0.5-17.3c0-55.3-14.4-108.9-42.7-159.4
		c-27.3-48.6-66.3-92.1-115.9-129.5C869.6,83.5,812.1,54.2,748,33.8C681.7,12.7,611.4,2,538.8,2C466.3,2,396,12.7,329.7,33.8
		C265.6,54.2,208,83.5,158.6,120.7C108.9,158.1,70,201.7,42.7,250.2C14.4,300.7,0,354.3,0,409.6c0,6.1,0.2,12.2,0.5,18.3
		c0,26.2-0.1,52.8-0.2,78.6c-0.1,22.7-0.2,46.2-0.2,69.2l0,0.8h0C0.2,634.3,14.7,690.4,43,743.1c27.3,50.8,66.3,96.4,115.8,135.6
		c49.5,39,107,69.7,171,91.1c66.2,22.1,136.5,33.3,209,33.3c72.5,0,142.8-11.2,209-33.3c64-21.4,121.6-52,171-91.1
		c49.6-39.1,88.6-84.7,115.8-135.6c28.3-52.8,42.8-108.8,42.9-166.7l0,0l0-0.8C1077.6,555.9,1077.4,535.9,1077.3,516.5z M55.1,257.2
		c26.3-46.8,64-88.9,112-125.1C215.3,95.8,271.4,67.2,334,47.3c64.9-20.7,133.8-31.1,204.8-31.1c71.1,0,140,10.5,204.8,31.1
		c62.6,19.9,118.7,48.4,166.9,84.7c48,36.2,85.7,78.3,112,125.1c27.1,48.3,40.9,99.6,40.9,152.4c0,5.8-0.2,11.6-0.5,17.4
		c-1.2,20.2-4.4,40.5-9.7,60.3l-0.5,1.7c-20.6,75.5-71.2,145.2-144.1,199.6c-2,1.5-4,2.9-6,4.4c-0.9,0.7-1.9,1.4-2.8,2
		c-2.1,1.5-4.2,3-6.3,4.4c-1,0.7-1.9,1.3-2.9,2c-2,1.3-4,2.7-6,4c-1.5,1-3,2-4.6,3c-1.4,0.9-2.7,1.7-4.1,2.6c-1,0.6-1.9,1.2-2.9,1.8
		c-14.4,8.9-29.3,17.2-44.7,24.9c-0.1,0-0.1,0.1-0.2,0.1c-3,1.5-6.1,3-9.2,4.5c0,0,0,0-0.1,0c-8.8,4.2-17.8,8.2-27,12
		c-0.6,0.2-1.2,0.5-1.8,0.7c-1.7,0.7-3.4,1.4-5.1,2c-1.9,0.8-3.8,1.5-5.8,2.3c-1.4,0.5-2.8,1.1-4.2,1.6c-2.3,0.9-4.5,1.7-6.8,2.5
		c-1.3,0.5-2.5,0.9-3.8,1.4c-2.5,0.9-4.9,1.7-7.4,2.6c-1.2,0.4-2.4,0.8-3.6,1.2c-2.6,0.9-5.1,1.7-7.7,2.5c-1.4,0.5-2.8,0.9-4.3,1.4
		c-0.8,0.3-1.6,0.5-2.4,0.8c-2.9,0.9-5.9,1.8-8.8,2.7c-0.4,0.1-0.8,0.2-1.1,0.3c-3.2,0.9-6.4,1.9-9.7,2.8
		c-46.9,12.9-95.8,20.7-145.8,23.1c-0.1,0-0.2,0-0.3,0c-3.6,0.2-7.2,0.3-10.8,0.4c-0.4,0-0.9,0-1.3,0c-3.5,0.1-7,0.2-10.4,0.3
		c-0.5,0-0.9,0-1.4,0c-3.6,0.1-7.2,0.1-10.7,0.1c-3.6,0-7.2,0-10.7-0.1c-0.5,0-0.9,0-1.4,0c-3.5-0.1-7-0.1-10.4-0.3
		c-0.4,0-0.9,0-1.3,0c-3.6-0.1-7.2-0.3-10.8-0.4c-0.1,0-0.2,0-0.3,0c-50-2.5-98.9-10.2-145.8-23.1c-3.2-0.9-6.5-1.8-9.7-2.8
		c-0.4-0.1-0.7-0.2-1.1-0.3c-3-0.9-5.9-1.8-8.8-2.7c-0.8-0.2-1.6-0.5-2.4-0.7c-1.4-0.5-2.9-0.9-4.3-1.4c-2.6-0.8-5.1-1.7-7.7-2.5
		c-1.2-0.4-2.4-0.8-3.6-1.2c-2.5-0.8-4.9-1.7-7.4-2.6c-1.3-0.5-2.5-0.9-3.8-1.4c-2.3-0.8-4.5-1.7-6.8-2.5c-1.4-0.5-2.8-1.1-4.2-1.6
		c-1.9-0.7-3.8-1.5-5.8-2.3c-1.7-0.7-3.4-1.3-5.1-2c-0.6-0.2-1.2-0.5-1.8-0.7c-9.1-3.8-18.1-7.8-26.9-11.9c0,0-0.1,0-0.1,0
		c-3.1-1.5-6.1-2.9-9.2-4.5c-0.1,0-0.1-0.1-0.2-0.1c-15.4-7.7-30.3-16-44.7-24.9c-1-0.6-1.9-1.2-2.9-1.8c-1.4-0.9-2.8-1.8-4.2-2.7
		c-1.5-1-3-1.9-4.5-2.9c-2-1.3-4-2.7-6-4c-0.9-0.6-1.9-1.3-2.8-1.9c-2.1-1.5-4.3-3-6.4-4.5c-0.9-0.7-1.9-1.3-2.8-2
		c-2-1.5-4-2.9-6-4.4C96.1,634.1,45.5,564.4,24.9,488.9l-0.5-1.7c-5.2-19.5-8.5-39.6-9.7-59.6c-0.4-6-0.5-12-0.5-18
		C14.2,356.7,27.9,305.5,55.1,257.2z M42.7,568.9c27.3,48.6,66.3,92.1,115.9,129.5c1.3,1,2.6,1.9,3.9,2.8c1,0.7,2,1.5,3,2.2
		c1.8,1.3,3.5,2.6,5.3,3.8c1.1,0.8,2.2,1.6,3.4,2.4c1.8,1.3,3.6,2.5,5.5,3.8c0.9,0.6,1.8,1.2,2.8,1.8c16.3,10.9,33.4,21,51.2,30.3
		c0,0,0,0,0,0c3.1,1.6,6.2,3.2,9.3,4.7c0.1,0.1,0.2,0.1,0.3,0.2c3.1,1.5,6.2,3,9.3,4.5c0.1,0,0.2,0.1,0.2,0.1
		c9,4.3,18.1,8.3,27.5,12.2c0.6,0.3,1.2,0.5,1.8,0.8c1.7,0.7,3.5,1.4,5.2,2.1c2,0.8,3.9,1.6,5.9,2.3c1.5,0.6,2.9,1.1,4.4,1.7
		c2.3,0.9,4.6,1.7,6.9,2.6c1.3,0.5,2.6,1,4,1.4c2.5,0.9,5,1.8,7.5,2.6c1.2,0.4,2.5,0.9,3.7,1.3c2.6,0.9,5.2,1.7,7.8,2.6
		c0.8,0.3,1.6,0.5,2.4,0.8c0.7,0.2,1.4,0.4,2.1,0.7c0.8,0.2,1.5,0.5,2.3,0.7c3,0.9,6.1,1.9,9.1,2.8c0.3,0.1,0.7,0.2,1,0.3
		c50.9,14.9,104.2,23.8,158.8,26.5c0.1,0,0.2,0,0.3,0c3.7,0.2,7.4,0.3,11,0.5c0.4,0,0.9,0,1.3,0c3.5,0.1,7.1,0.2,10.7,0.3
		c0.5,0,0.9,0,1.4,0c3.6,0.1,7.3,0.1,11,0.1c3.7,0,7.3,0,11-0.1c0.5,0,0.9,0,1.4,0c3.6-0.1,7.1-0.1,10.7-0.3c0.4,0,0.9,0,1.3,0
		c3.7-0.1,7.4-0.3,11-0.5c0.1,0,0.2,0,0.3,0c54.7-2.7,107.9-11.6,158.8-26.5c0.4-0.1,0.7-0.2,1.1-0.3c3-0.9,6.1-1.8,9.1-2.8
		c0.8-0.2,1.6-0.5,2.3-0.7c0.7-0.2,1.4-0.4,2.1-0.7c0.8-0.3,1.6-0.5,2.4-0.8c2.6-0.8,5.2-1.7,7.8-2.6c1.2-0.4,2.5-0.8,3.7-1.3
		c2.5-0.9,5-1.7,7.5-2.6c1.3-0.5,2.6-0.9,4-1.4c2.3-0.8,4.6-1.7,6.9-2.6c1.5-0.6,2.9-1.1,4.4-1.7c2-0.8,3.9-1.5,5.9-2.3
		c1.7-0.7,3.5-1.4,5.2-2.1c0.6-0.3,1.2-0.5,1.8-0.8c9.3-3.9,18.5-7.9,27.5-12.2c0.1,0,0.2-0.1,0.2-0.1c3.1-1.5,6.2-3,9.3-4.5
		c0.1-0.1,0.2-0.1,0.3-0.2c3.1-1.6,6.2-3.1,9.3-4.7c0,0,0,0,0,0c17.8-9.3,34.8-19.3,51.1-30.2c0.9-0.6,1.9-1.2,2.8-1.9
		c1.8-1.2,3.6-2.5,5.5-3.8c1.1-0.8,2.3-1.6,3.4-2.4c1.8-1.3,3.5-2.5,5.3-3.8c1-0.7,2-1.5,3-2.2c1.3-1,2.6-1.9,3.9-2.8
		c49.6-37.4,88.6-80.9,115.9-129.5c11.8-21,21.2-42.6,28.1-64.6c0,4.1,0.1,8.2,0.1,12.3c0.1,19.3,0.2,39.3,0.2,59l0,0.7c0,0,0,0,0,0
		c0,1.6-0.1,3.2-0.2,4.8c0,0.1,0,0.1,0,0.2c-0.1,1.5-0.1,3.1-0.2,4.6c0,0.1,0,0.2,0,0.3c-0.1,1.5-0.2,3-0.3,4.5c0,0.1,0,0.2,0,0.3
		c-0.1,1.5-0.2,3-0.4,4.5c0,0.1,0,0.3,0,0.4c-0.1,1.5-0.3,2.9-0.4,4.4c0,0.2,0,0.3-0.1,0.5c-0.2,1.4-0.3,2.9-0.5,4.3
		c0,0.2-0.1,0.5-0.1,0.7c-0.2,1.4-0.3,2.7-0.5,4.1c0,0.3-0.1,0.7-0.2,1c-0.2,1.3-0.4,2.5-0.6,3.8c-0.1,0.3-0.1,0.7-0.2,1
		c-0.2,1.3-0.4,2.5-0.6,3.8c-0.1,0.4-0.1,0.8-0.2,1.2c-0.2,1.2-0.4,2.4-0.7,3.6c-0.1,0.4-0.2,0.9-0.3,1.3c-0.2,1.1-0.4,2.3-0.7,3.4
		c-0.1,0.5-0.2,1-0.3,1.6c-0.2,1.1-0.4,2.1-0.7,3.2c-0.1,0.5-0.2,0.9-0.3,1.4c-0.3,1.1-0.5,2.3-0.8,3.4c-0.1,0.5-0.2,1-0.4,1.4
		c-0.3,1.1-0.5,2.2-0.8,3.3c-0.1,0.6-0.3,1.1-0.5,1.7c-0.3,1-0.5,2-0.8,3c-0.2,0.6-0.3,1.1-0.5,1.7c-0.3,1-0.6,2-0.9,3
		c-0.2,0.6-0.4,1.2-0.5,1.8c-0.3,1-0.6,1.9-0.9,2.9c-0.2,0.6-0.4,1.1-0.5,1.7c-0.3,1-0.6,2-1,3c-0.2,0.6-0.4,1.2-0.6,1.8
		c-0.3,1-0.6,1.9-1,2.9c-0.2,0.7-0.5,1.3-0.7,2c-0.3,0.9-0.6,1.8-0.9,2.6c-0.2,0.6-0.5,1.3-0.7,1.9c-0.3,0.9-0.7,1.8-1,2.7
		c-0.2,0.6-0.5,1.3-0.7,1.9c-0.3,0.9-0.7,1.8-1,2.7c-0.2,0.6-0.5,1.2-0.7,1.8c-0.4,0.9-0.8,1.9-1.1,2.8c-0.3,0.6-0.5,1.2-0.8,1.8
		c-0.4,0.9-0.8,1.8-1.2,2.7c-0.2,0.5-0.5,1.1-0.7,1.6c-0.4,1-0.9,2-1.3,2.9c-0.3,0.6-0.6,1.2-0.8,1.8c-0.4,0.9-0.8,1.8-1.3,2.7
		c-0.4,0.8-0.7,1.5-1.1,2.3c-0.4,0.7-0.7,1.5-1.1,2.2c-0.3,0.5-0.5,1.1-0.8,1.6c-0.5,1-1,1.9-1.4,2.9c-0.1,0.2-0.2,0.3-0.2,0.5
		c-1.5,2.9-2.9,5.7-4.5,8.5c-0.3,0.6-0.6,1.1-0.9,1.7c-1.3,2.4-2.7,4.8-4.1,7.2c-26.8,46-64.7,87.2-112.6,122.6
		c-98.8,73.1-229.6,113.3-368.3,113.3c-138.7,0-269.5-40.2-368.3-113.3C122.7,813.2,84.8,771.9,57.9,726c-1.1-1.9-2.2-3.8-3.3-5.8
		c-1.4-2.5-2.8-5.1-4.2-7.6c-0.1-0.2-0.2-0.3-0.3-0.5c-2.3-4.3-4.4-8.7-6.5-13c0-0.1-0.1-0.1-0.1-0.2c-2.8-6-5.4-12-7.9-18.1
		c0,0,0,0,0,0c-0.6-1.5-1.2-3-1.8-4.6c0-0.1,0-0.1-0.1-0.2c-0.6-1.5-1.1-3-1.7-4.5c-0.1-0.1-0.1-0.3-0.2-0.4c-0.5-1.4-1-2.8-1.5-4.2
		c0,0,0-0.1,0-0.1c-0.5-1.5-1-3-1.5-4.5c0-0.1-0.1-0.3-0.1-0.4c-0.5-1.4-0.9-2.9-1.4-4.3c0-0.1-0.1-0.2-0.1-0.3
		c-0.4-1.5-0.9-2.9-1.3-4.4c0-0.2-0.1-0.3-0.1-0.5c-0.4-1.4-0.8-2.8-1.2-4.2c-0.1-0.2-0.1-0.5-0.2-0.7c-0.4-1.3-0.7-2.7-1.1-4
		c-0.1-0.3-0.1-0.5-0.2-0.8c-0.3-1.3-0.7-2.6-1-4c-0.1-0.2-0.1-0.4-0.2-0.7c-0.3-1.4-0.6-2.7-0.9-4.1c-0.1-0.3-0.1-0.6-0.2-0.9
		c-0.3-1.3-0.6-2.5-0.8-3.8c-0.1-0.3-0.1-0.5-0.2-0.8c-0.3-1.3-0.5-2.7-0.8-4c0-0.2-0.1-0.5-0.1-0.7c-0.3-1.3-0.5-2.7-0.7-4
		c0-0.3-0.1-0.6-0.1-0.9c-0.2-1.3-0.4-2.6-0.6-3.9c-0.1-0.3-0.1-0.7-0.2-1c-0.2-1.3-0.4-2.5-0.6-3.8c-0.1-0.4-0.1-0.7-0.1-1.1
		c-0.2-1.2-0.3-2.5-0.5-3.7c-0.1-0.4-0.1-0.8-0.1-1.2c-0.1-1.2-0.3-2.4-0.4-3.6c0-0.4-0.1-0.8-0.1-1.2c-0.1-1.2-0.2-2.4-0.4-3.6
		c0-0.4-0.1-0.8-0.1-1.1c-0.1-1.2-0.2-2.5-0.3-3.7c0-0.4-0.1-0.8-0.1-1.2c-0.1-1.2-0.2-2.4-0.2-3.6c0-0.4,0-0.8-0.1-1.2
		c-0.1-1.2-0.1-2.4-0.2-3.7c0-0.4,0-0.9,0-1.3c0-1.2-0.1-2.3-0.1-3.5l0-0.6c0-23,0.1-46.5,0.2-69.2c0-0.8,0-1.6,0-2.4
		C21.4,526.2,30.8,547.8,42.7,568.9z M910.1,867.6c-48.2,38-104.3,67.9-166.7,88.7c-64.8,21.6-133.6,32.6-204.5,32.6
		s-139.7-11-204.5-32.6c-62.5-20.9-118.6-50.7-166.7-88.7c-15-11.9-29.1-24.4-42.1-37.4c0.2,0.2,0.4,0.4,0.7,0.6
		c0.8,0.7,1.6,1.4,2.4,2.1c0.6,0.6,1.3,1.1,1.9,1.7c0.8,0.7,1.6,1.4,2.4,2.1c0.6,0.5,1.3,1.1,1.9,1.6c0.8,0.7,1.7,1.4,2.5,2.1
		c0.6,0.5,1.3,1.1,1.9,1.6c0.9,0.7,1.7,1.4,2.6,2.1c0.6,0.5,1.3,1,1.9,1.6c0.9,0.7,1.8,1.4,2.7,2.2c0.6,0.5,1.2,1,1.8,1.5
		c0.9,0.7,1.9,1.5,2.8,2.2c0.6,0.5,1.2,0.9,1.7,1.4c1.1,0.8,2.1,1.6,3.2,2.4c0.5,0.4,1,0.7,1.5,1.1c1.6,1.2,3.1,2.4,4.7,3.5
		c101.2,74.9,235,116.1,376.7,116.1S814.3,934.8,915.6,860c1.6-1.2,3.1-2.3,4.7-3.5c0.5-0.4,1-0.7,1.5-1.1c1.1-0.8,2.1-1.6,3.2-2.4
		c0.6-0.5,1.2-0.9,1.7-1.4c0.9-0.7,1.9-1.5,2.8-2.2c0.6-0.5,1.2-1,1.8-1.5c0.9-0.7,1.8-1.4,2.7-2.2c0.6-0.5,1.3-1,1.9-1.6
		c0.9-0.7,1.7-1.4,2.6-2.1c0.6-0.5,1.3-1.1,1.9-1.6c0.8-0.7,1.7-1.4,2.5-2.1c0.6-0.5,1.3-1.1,1.9-1.6c0.8-0.7,1.6-1.4,2.4-2.1
		c0.6-0.6,1.3-1.1,1.9-1.7c0.8-0.7,1.6-1.4,2.4-2.1c0.2-0.2,0.4-0.4,0.7-0.6C939.1,843.2,925.1,855.7,910.1,867.6z"/>
</g>
<path class="fillpulse" d="M538.8,281.9c-48.3,0-87.6,28.4-87.6,63.2c0,34.9,39.3,63.2,87.6,63.2s87.6-28.4,87.6-63.2
	C626.5,310.2,587.2,281.9,538.8,281.9z"/>
</svg>
