<?xml version="1.0" encoding="utf-8"?>
<!-- Generator: Adobe Illustrator 21.0.0, SVG Export Plug-In . SVG Version: 6.00 Build 0)  -->
<svg version="1.1" id="Layer_1" xmlns="http://www.w3.org/2000/svg" xmlns:xlink="http://www.w3.org/1999/xlink" x="0px" y="0px"
	 viewBox="0 0 1750.6 1783" style="enable-background:new 0 0 1750.6 1783;" xml:space="preserve">
<style type="text/css">
	.st0{fill:#020204;}
</style>
<g>
	<path class="st0" d="M1723.1,169c-37-83.6-111-136.8-220.1-158c-104.3-20.3-234.5-12.4-376.5,23
		c-142.7,35.5-291.4,97.3-429.9,178.5c-72.5,42.6-141.8,90.2-206,141.7c-67.4,54-129.4,112.4-184.3,173.6
		C185.9,661.9,99.8,808.1,50.4,962.4c-22.2,69.3-37.3,138.4-44.9,205.5c-8.5,75.1-7.2,145.7,3.7,209.8
		c12.3,72,36.8,135.7,72.9,189.4c40.1,59.5,94.7,107.2,162.4,141.6c61.5,31.3,124.3,53,186.7,64.4c36.1,6.6,72.6,10,109.1,10
		c23.2,0,46.5-1.3,69.6-4c107.9-12.6,217.6-54.9,326.1-125.7c92.2-60.2,185.7-142.5,277.9-244.5c73.9-81.7,149.2-178.8,223.8-288.4
		l0.4-0.6c99.6-163.8,173.8-308.1,226.9-441.2C1754.3,455.1,1773.8,283.7,1723.1,169z M1715.3,403.1
		c-11.4,77.1-37.2,166.2-76.6,264.9c-52.5,131.5-125.9,274.3-224.6,436.6c-73.8,108.4-148.3,204.4-221.2,285.1
		c-90.6,100.2-182.2,180.9-272.4,239.8c-104.8,68.4-210.4,109.3-313.9,121.3c-56.7,6.6-114,4.7-170.2-5.7
		c-59.6-11-119.8-31.8-178.9-61.8c-63.4-32.2-114.4-76.7-151.8-132.2c-33.9-50.3-56.9-110.3-68.5-178.3
		c-10.5-61.5-11.7-129.4-3.5-201.8c7.4-65.2,22.1-132.6,43.7-200.1c48.2-150.4,132.3-293.1,250-424.3
		c53.9-60.1,114.8-117.4,181-170.5c63.1-50.6,131.3-97.5,202.6-139.3C847.1,157,993.2,96.3,1133.3,61.5c88.5-22,172-33.1,247-33.1
		c42,0,81.2,3.5,117.2,10.5c51.8,10.1,95.1,27.9,128.9,52.9c31.1,23,54.9,52.9,70.7,88.8C1722.6,238,1728.7,312.9,1715.3,403.1z"/>
	<path class="st0" d="M436.8,859.7c-3-11.3-8-21.6-14.6-30.5c-7.4-9.9-17-18.3-28.4-24.6c-10.7-5.8-22.9-9.7-36.4-11
		c-13.6-1.3-27.4,0.1-40.5,3.8c-13.3,3.8-26.2,10.1-37.7,18.4c-11.9,8.5-22.3,19.2-30.6,31.5c-7,10.4-12.4,22-15.8,34.4
		c-1.3,3.9-2.4,7.9-3.3,11.9c-3.3,14.8-3.5,29.4-0.5,43.4c3,14.3,9.1,27.2,18,38.4c8.9,11.1,20,19.8,33,25.7
		c12.9,5.9,26.9,8.9,41.7,8.9c14,0,28-2.7,41.6-8c13.5-5.3,26-12.9,37.1-22.6c10.7-9.3,19.6-20.2,26.5-32.3
		c6.9-12.1,11.6-25.1,13.8-38.5c2.2-13.2,1.9-26.3-1-38.8C438.9,866.4,438,863,436.8,859.7z M400.5,924.9
		c-5.2,9.2-12.1,17.4-20.1,24.4c-8.3,7.2-17.8,13.1-28.1,17.1c-9.7,3.8-20,5.9-30.7,5.9c-10.8,0-20.6-2.1-29.1-6
		c-8.7-4-16.2-9.8-21.9-17c-4-5-7.1-10.6-9.4-16.8c-0.2-0.7-0.3-1.3-0.5-2c-2-9.5-1.9-19.5,0.4-29.8c2.3-10.2,6.5-20,12.6-29.1
		c6.2-9.2,14-17.2,23.1-23.8c8.6-6.2,18.1-10.8,28.3-13.7c7.5-2.1,14.9-3.2,22.2-3.2c2.4,0,4.7,0.1,7,0.3c9.1,0.9,17.5,3.4,24.9,7.4
		c7.2,4,13.5,9.4,18.5,16.1c4.9,6.6,8.4,14.1,10.2,22.3c1.9,8.4,2.1,17.3,0.6,26.5c-0.4,2.3-0.9,4.5-1.4,6.8
		C405.4,915.3,403.2,920.2,400.5,924.9z M401.2,852.1c-5.4-7.2-12.1-13-19.9-17.3h0c-7.9-4.3-16.8-7-26.5-8c-10-1-20.4,0-30.8,3
		c-10.6,3-20.5,7.9-29.6,14.4c-9.5,6.9-17.7,15.2-24.1,24.9c-4.5,6.6-7.9,13.6-10.5,20.8c2.5-9.7,6.7-18.7,12.2-26.9
		c6.4-9.5,14.5-17.7,23.6-24.3c8.8-6.3,18.6-11.1,28.9-14c9.9-2.8,20.1-3.9,30-2.9c9.7,0.9,18.3,3.6,25.7,7.7
		c7.6,4.2,14.1,9.9,19.2,16.7c4.8,6.4,8.3,13.9,10.3,22C407.7,862.4,404.8,857,401.2,852.1z M423.3,945.1
		c-6.7,11.7-15.3,22.2-25.6,31.2c-10.8,9.4-22.8,16.7-35.9,21.8c-13.1,5.1-26.6,7.7-40.1,7.7c-14.2,0-27.7-2.9-40-8.5
		c-12.4-5.7-23-13.9-31.4-24.5c-7.6-9.5-13-20.4-16.2-32.3c3.3,9.6,8.2,18.5,14.5,26.3c8.5,10.7,19.5,19.3,32.2,25.1
		c12.2,5.6,26,8.7,40.9,8.7c14.1,0,27.9-2.8,40.9-7.8c13.4-5.2,25.8-12.8,36.5-22.2c10.4-9.1,19.2-19.8,26.1-31.7
		c3.6-6.3,6.7-13,9-20C431.7,927.9,428,936.7,423.3,945.1z"/>
	<path class="st0" d="M744.8,340.9c17.7,5.2,32.9,9.8,47.3,14.5c-13.7,16.1-27.1,34-40.2,53.5c-1.5,2.2-2.2,4.6-2.4,7.1
		c-2,3.4-2.6,7.3-1.9,11.2c0.8,4.3,3.3,7.9,6.9,10.4c2.7,1.8,5.8,2.8,9,2.8c1.1,0,2.1-0.1,3.2-0.3c4.3-0.8,7.9-3.3,10.4-6.9
		c16.3-24.5,33.5-46.4,51.1-65.2c26.2,9.5,53.5,20.6,83.4,33.8c8.2,3.6,17.8-0.1,21.5-8.3c2.2-4.9,1.7-10.3-0.8-14.6
		c-0.3-5.2-3.4-10-8.4-12.2c-24.4-10.7-45.9-19.6-65.9-27.3c14.4-12.3,29.3-22.9,44.3-31.6c7.8-4.5,10.5-14.4,6-22.2c0,0,0,0,0,0
		c-0.1-2.1-0.7-4.2-1.8-6.2c-3.9-6.8-12.5-9.1-19.3-5.3c-23.3,13.3-45.6,30.5-67.1,51.4c-22.4-7.7-44-14.3-66.8-21
		c-7.5-2.2-15.3,2.1-17.5,9.6c-0.3,1-0.5,2.1-0.5,3.1c-0.6,1.1-1.2,2.3-1.5,3.5c-1.2,4.2-0.7,8.6,1.4,12.4
		C737.1,336.9,740.6,339.6,744.8,340.9z M745.9,336.8L745.9,336.8c-3.1-0.9-5.6-2.9-7.2-5.7c-1-1.8-1.5-3.7-1.5-5.7
		c1.8,2.9,4.6,5.1,8.1,6.1c17.8,5.2,35.1,10.4,53.1,16.5c-1.1,1.3-2.3,2.6-3.4,3.9C780.1,347,764.4,342.1,745.9,336.8z M929.2,391.6
		c-1.3,2.9-3.7,5.2-6.7,6.4c-3,1.2-6.3,1.1-9.2-0.2c-30.5-13.5-58.3-24.7-85-34.4l-1.3-0.5l-1,1c-18.1,19.2-35.7,41.7-52.5,66.8
		c-1.8,2.7-4.5,4.5-7.6,5.1c-3.1,0.6-6.3,0-9-1.8c-2.7-1.8-4.5-4.5-5.1-7.6c-0.1-0.7-0.2-1.4-0.2-2.2c1,1.7,2.4,3.1,4.1,4.3
		c6.5,4.3,15.3,2.6,19.6-3.9c16.8-25.1,34.2-47.3,52.2-66.5c25.3,9.2,52.6,20.1,84.9,34.3c6.5,2.9,14.1,0.4,17.7-5.5
		C930.2,388.5,929.9,390.1,929.2,391.6z M900.2,304c-15.9,9.1-31.5,20.4-46.7,33.5c-1.2-0.4-2.4-0.9-3.5-1.3
		c16.6-15,33.7-27.6,51.3-37.6c2.1-1.2,3.8-2.9,5-4.8C906.1,297.8,904,301.8,900.2,304z"/>
	<path class="st0" d="M955.4,1106.6c-0.4-2.2-1.1-4.2-2-6.2c0-0.2-0.1-0.4-0.1-0.6c-1.5-7.3-5.7-13.9-12.3-18.3l0,0
		c-0.1-0.1-0.5-0.3-1.1-0.7l-125.9-76.1c-6.6-4-14.6-5-22-3.3c-7.1,1.6-13.9,5.6-18.6,11.7c-33.7,43.3-67.3,86.6-101,129.8
		c-0.4,0.5-0.9,1.2-1.5,2.1c-2.5,3.8-4.2,7.9-5,12c-2.2,5.1-3.1,10.7-2.5,16.1c0.8,8.5,4.8,16,11.3,21c0.4,0.3,1,0.8,1.8,1.3
		c44.1,29.3,88.2,58.7,132.3,88.1c5.3,3.5,11.4,5.3,17.7,5.3c2.8,0,5.6-0.4,8.4-1.1c7.9-2,14.9-6.7,19.8-13.3l0.1,0.1l25.9-38.8
		l1.1-1.8l62.8-94.1l0,0c0,0,0.5-0.7,1.6-2.4l0.2-0.2c0.2-0.2,0.3-0.5,0.5-0.7l0-0.1c0,0,0,0,0,0h0l1.6-2.4l0,0l2.2-3.3
		c0.1-0.1,0.2-0.2,0.2-0.4l0.5-0.7l0,0C955.6,1122.5,957,1114.4,955.4,1106.6z M925.3,1106.6c-0.1,0.2,0,0-0.1,0.1l-1.4,2.1
		c-15.4-9.5-31-18.9-46.2-28c-8.2-4.9-16.3-9.8-24.5-14.7l-52.5-31.8c-0.7-0.5-1.7-0.5-2.9-0.3c-1.4,0.3-2.7,1.1-3.6,2.3
		c-33,42.5-66.1,85-99.1,127.5c-0.4-0.3-0.9-0.6-1.3-0.9c0-0.7,0.3-1.5,0.9-2.4c0,0,0.1-0.1,0.3-0.4c33.7-43.3,67.3-86.5,101-129.8
		c0.6-0.8,1.5-1.3,2.4-1.5c0.6-0.1,1.1-0.1,1.3,0l52.5,31.8c24.4,14.8,49.1,29.4,73.3,44.4l0,0h0c0.1,0.1,0.2,0.2,0.2,0.4
		C925.7,1105.7,925.6,1106.1,925.3,1106.6z M921.4,1112.5c-40.1,60.2,10.7-15.9-41.7,62.7l-24.1,36.2h-0.1l-24.7,37.1v0.1
		c-0.8,1.2-2,2.1-3.3,2.4c-0.7,0.2-1.4,0.2-1.8-0.1c-42.4-28.2-84.8-56.4-127.2-84.6c33-42.4,66-84.8,98.9-127.2
		c0.3-0.3,0.7-0.6,1.1-0.7c0,0,0.1,0,0.1,0l52.2,31.6c8.1,4.9,16.3,9.8,24.5,14.7c14,8.4,28.3,17,42.5,25.7h-0.7L921.4,1112.5z
		 M693.4,1162.7L693.4,1162.7L693.4,1162.7C693.3,1162.6,693.4,1162.7,693.4,1162.7z M947.7,1127.4c-0.1,0.1-0.2,0.3-0.3,0.5l0,0
		l0,0l0,0l-2.9,4.4l0,0l-67.3,100.9l-1.2,1.8l-22.3,33.5l0,0l-1.2,1.8c-4.5,6.7-11.1,11.4-18.6,13.3c-8,2-16.1,0.7-22.7-3.7
		c-44.1-29.4-88.2-58.7-132.3-88.1c-0.9-0.6-1.3-0.9-1.6-1.1c-5-3.9-8.3-9.5-9.4-15.9c1.8,4,4.5,7.5,8.1,10.3
		c0.4,0.3,0.9,0.7,1.7,1.2c44.1,29.3,88.2,58.7,132.3,88.1c7.4,4.9,16.2,6.1,24.4,4c7.7-2,14.9-6.8,19.8-14.2l0,0l24.7-37.1l0,0
		l66.2-99.2l3.7-5.5l0.2-0.3c0.8-1.2,1.1-1.6,0.2-0.3c0.2-0.2,0.3-0.4,0.3-0.5c0.7-1.1,1.3-2.3,1.8-3.5
		C950.8,1121.1,949.6,1124.4,947.7,1127.4z"/>
	<path class="st0" d="M736.1,565c1.2-4.2,0.7-8.6-1.4-12.4c0-0.1-0.1-0.2-0.2-0.3c-0.1-2-0.7-4.1-1.7-6c-1.6-2.9-4.1-5.1-7-6.3
		c-31.5-13.1-61.1-24.7-88.7-34.6c-27.5-9.9-52.4-17.9-74.9-24.2c-7-1.9-14.3,1.8-16.9,8.5l0,0c-5.7,14.6-11,30.1-15.9,46.5
		c-4.5,14.4-8.6,29.5-12.4,45.3c-7.5,31-13.9,65.1-19,101.4c-1.2,8.9,5,17.1,13.9,18.3c0.7,0.1,1.5,0.2,2.2,0.2c2.5,0,5-0.6,7.2-1.7
		l0.1,0.1l1.8-1.2c29.2-19.7,61.2-40.2,95.2-60.7c34.2-20.7,71.2-42,109.9-63.3C732.1,572.6,734.9,569.2,736.1,565z M548.5,589.3
		c5.8-24.1,12.5-46.7,19.9-67.2c18,5.4,37.7,11.9,58.5,19.3c15.9,5.7,33,12.2,51,19.3c-26.3,14.9-51.4,29.5-75.3,44
		c-23.1,13.9-45,27.7-65.9,41.3C540.3,626.1,544.2,607,548.5,589.3z M682.7,558c-19.2-7.7-37.5-14.6-54.3-20.7
		c-21.6-7.8-42-14.5-60.6-20l-1.9-0.6l-0.7,1.9c-3.1,8.7-6.2,17.7-9,27.1c3.5-11.7,7.2-22.9,11-33.6c18.7,5.5,38.9,12.2,60.5,19.9
		c18.7,6.7,38.8,14.4,60.2,23C686.1,556.1,684.4,557,682.7,558z M616.2,634.4c-33.4,20.2-64.8,40.2-93.6,59.6l0,0l-1.8,1.2
		c-2.5,1.7-5.4,2.3-8.4,1.9c-5.9-0.8-10.3-5.9-10.4-11.7c2.1,3.4,5.7,5.9,10.1,6.5c3.6,0.5,7.1-0.4,9.8-2.3l0,0
		c29.3-19.9,61.1-40.1,95.3-60.8c34.4-20.8,71-41.9,110-63.4c2.2-1.2,4-2.9,5.2-4.9c0,1.1-0.2,2.1-0.5,3.2c-0.9,3.1-2.9,5.6-5.8,7.2
		C687.4,592.4,650.4,613.7,616.2,634.4z"/>
	<path class="st0" d="M945.2,1127.7L945.2,1127.7C941.5,1133.3,943,1131.1,945.2,1127.7z"/>
	<path class="st0" d="M1306.3,531.5c-37.1-22.9-72-42.1-105.1-58.3c-33.2-16.3-64.5-29.4-94.3-40.2c-7.3-2.7-15.4,1.1-18.1,8.5
		c-0.5,1.3-0.7,2.7-0.8,4c-0.5,0.8-0.9,1.6-1.2,2.5c-3.1,8.4,1.3,17.8,9.7,20.8l0,0c30.5,11,60.4,23.8,91.3,38.9
		c33,16.2,67.5,35.3,102.5,56.8c2.7,1.6,5.6,2.4,8.5,2.4c5.5,0,10.8-2.7,13.8-7.7c3.2-5.2,3.1-11.6,0.3-16.6
		C1312.7,538.3,1310.4,534.1,1306.3,531.5z M1309.1,557.1c-3.5,5.6-10.9,7.4-16.5,3.9c-35.1-21.6-69.7-40.8-102.8-57
		c-31.1-15.2-61.1-28-91.8-39.1v0c-4.8-1.7-7.8-6.3-7.9-11.1c1.6,2.6,4.1,4.7,7.2,5.8c29.1,10.5,59.5,23.3,91.6,39
		c32.2,15.8,66.3,34.5,102.6,56.9c6.6,4.1,15.3,2,19.4-4.5C1310.8,553.1,1310.3,555.2,1309.1,557.1z"/>
	<path class="st0" d="M925.3,1105L925.3,1105L925.3,1105C925.3,1104.9,925.2,1104.9,925.3,1105z"/>
	<path class="st0" d="M1153.7,755.1c-47.6-1.7-98.3-0.5-149.4,4.9c-2-7.2-4.1-14.4-6.3-21.6c-8.5-28.5-18.8-56-30.8-82.4
		c-3.2-7.1-11.6-10.2-18.7-7c-4.9,2.3-8,7-8.2,12.1c-2.5,4.4-2.9,9.9-0.7,14.8c12.6,27.8,23.4,57.4,32.1,88.1
		C925,770.7,878.5,781,834.4,796c-5.6,1.9-9.3,7-9.6,12.6c-0.2,0.3-0.3,0.6-0.5,0.8c-1.9,3.9-2.2,8.3-0.8,12.4
		c2.9,8.5,12.1,13.1,20.6,10.2c41.6-14.1,87.6-24.7,136.8-31.3c8.6,38.4,14.2,79.3,16.8,121.5c0.3,4.3,2.2,8.3,5.4,11.2
		c3,2.7,6.8,4.1,10.8,4.1c0.3,0,0.7,0,1,0c9-0.5,15.8-8.2,15.3-17.2c-2.7-42.9-8.3-84.4-16.8-123.4c44.9-4.4,91.7-5.8,139.2-4.1
		c9,0.3,16.5-6.7,16.8-15.7c0.1-3.1-0.7-6.1-2.1-8.6C1167,761.3,1161.1,755.4,1153.7,755.1z M942.4,669.8
		c10.7,23.8,20,48.6,27.8,74.4c-7.6-24.2-16.6-47.7-26.7-70C942.8,672.8,942.5,671.3,942.4,669.8z M842.8,828
		c-6.3,2.1-13.1-1.2-15.2-7.5c-0.4-1.2-0.6-2.5-0.6-3.7c3.4,5.5,10.2,8.1,16.6,6c44.7-15.2,91.9-25.4,139.1-31.7
		c0.4,1.7,0.7,3.3,1.1,5l-1.4,0.2C932.1,802.9,885.2,813.6,842.8,828z M1014.7,933.3c-6.6,0.4-12.3-4.7-12.7-11.3c0-0.2,0-0.4,0-0.5
		c2.6,4.3,7.5,7,12.9,6.7c4.8-0.3,8.8-2.9,11.2-6.7C1026,927.7,1021.1,932.9,1014.7,933.3z M1152.8,788.5
		c-48.1-1.7-95.5-0.3-140.9,4.3c-0.4-1.7-0.7-3.4-1.1-5c48.4-4.9,96.6-6,141.9-4.4c5.2,0.2,9.9-2.5,12.5-6.7c0,0.1,0,0.2,0,0.3
		C1165,783.6,1159.4,788.7,1152.8,788.5z"/>
	<polygon class="st0" points="948.8,1122.3 948.8,1122.4 946.8,1125.3 	"/>
	<path class="st0" d="M925.4,1105L925.4,1105C925.4,1105,925.4,1105,925.4,1105z"/>
</g>
</svg>